REM DIRINDEX 1\2\4,1\2\5,1\3\6,1\3\7,1\3\8
REM DIRNAME cjc094,folder01,folder02,folder03,folder04,folder05,folder06,folder07
TITLE ""
FILE "LV2_022_WORDS.mp3" MP3
  TRACK 01 AUDIO
    TITLE "0:"
    INDEX 01 00:00:00
  TRACK 02 AUDIO
    TITLE "6:cjc094_0821"
    INDEX 01 00:00:05
  TRACK 03 AUDIO
    TITLE "0:"
    INDEX 01 00:02:53
  TRACK 04 AUDIO
    TITLE "7:cjc094_0822"
    INDEX 01 00:03:39
  TRACK 05 AUDIO
    TITLE "0:"
    INDEX 01 00:04:36
  TRACK 06 AUDIO
    TITLE "8:cjc094_0823"
    INDEX 01 00:04:48
  TRACK 07 AUDIO
    TITLE "0:"
    INDEX 01 00:06:55
  TRACK 08 AUDIO
    TITLE "7:cjc094_0824"
    INDEX 01 00:07:31
  TRACK 09 AUDIO
    TITLE "0:"
    INDEX 01 00:08:28
  TRACK 10 AUDIO
    TITLE "8:cjc094_0825"
    INDEX 01 00:08:44
  TRACK 11 AUDIO
    TITLE "0:"
    INDEX 01 00:09:51
  TRACK 12 AUDIO
    TITLE "7:cjc094_0826"
    INDEX 01 00:10:25
  TRACK 13 AUDIO
    TITLE "0:"
    INDEX 01 00:11:27
  TRACK 14 AUDIO
    TITLE "8:cjc094_0827"
    INDEX 01 00:11:46
  TRACK 15 AUDIO
    TITLE "0:"
    INDEX 01 00:14:66
  TRACK 16 AUDIO
    TITLE "7:cjc094_0828"
    INDEX 01 00:15:40
  TRACK 17 AUDIO
    TITLE "0:"
    INDEX 01 00:16:53
  TRACK 18 AUDIO
    TITLE "8:cjc094_0829"
    INDEX 01 00:16:65
  TRACK 19 AUDIO
    TITLE "0:"
    INDEX 01 00:19:50
  TRACK 20 AUDIO
    TITLE "7:cjc094_0830"
    INDEX 01 00:20:26
  TRACK 21 AUDIO
    TITLE "0:"
    INDEX 01 00:21:29
  TRACK 22 AUDIO
    TITLE "8:cjc094_0831"
    INDEX 01 00:21:49
  TRACK 23 AUDIO
    TITLE "0:"
    INDEX 01 00:22:52
  TRACK 24 AUDIO
    TITLE "7:cjc094_0832"
    INDEX 01 00:23:30
  TRACK 25 AUDIO
    TITLE "0:"
    INDEX 01 00:24:31
  TRACK 26 AUDIO
    TITLE "8:cjc094_0833"
    INDEX 01 00:24:47
  TRACK 27 AUDIO
    TITLE "0:"
    INDEX 01 00:26:73
  TRACK 28 AUDIO
    TITLE "7:cjc094_0834"
    INDEX 01 00:27:49
  TRACK 29 AUDIO
    TITLE "0:"
    INDEX 01 00:28:49
  TRACK 30 AUDIO
    TITLE "8:cjc094_0835"
    INDEX 01 00:28:64
  TRACK 31 AUDIO
    TITLE "0:"
    INDEX 01 00:31:57
  TRACK 32 AUDIO
    TITLE "7:cjc094_0836"
    INDEX 01 00:32:27
  TRACK 33 AUDIO
    TITLE "0:"
    INDEX 01 00:33:28
  TRACK 34 AUDIO
    TITLE "8:cjc094_0837"
    INDEX 01 00:33:42
  TRACK 35 AUDIO
    TITLE "0:"
    INDEX 01 00:34:67
  TRACK 36 AUDIO
    TITLE "7:cjc094_0838"
    INDEX 01 00:35:45
  TRACK 37 AUDIO
    TITLE "0:"
    INDEX 01 00:36:48
  TRACK 38 AUDIO
    TITLE "8:cjc094_0839"
    INDEX 01 00:36:64
  TRACK 39 AUDIO
    TITLE "0:"
    INDEX 01 00:39:35
  TRACK 40 AUDIO
    TITLE "7:cjc094_0840"
    INDEX 01 00:40:05
  TRACK 41 AUDIO
    TITLE "0:"
    INDEX 01 00:41:10
  TRACK 42 AUDIO
    TITLE "8:cjc094_0841"
    INDEX 01 00:41:24
  TRACK 43 AUDIO
    TITLE "0:"
    INDEX 01 00:42:19
  TRACK 44 AUDIO
    TITLE "7:cjc094_0842"
    INDEX 01 00:42:66
  TRACK 45 AUDIO
    TITLE "0:"
    INDEX 01 00:43:58
  TRACK 46 AUDIO
    TITLE "8:cjc094_0843"
    INDEX 01 00:43:72
  TRACK 47 AUDIO
    TITLE "0:"
    INDEX 01 00:45:00
  TRACK 48 AUDIO
    TITLE "7:cjc094_0844"
    INDEX 01 00:45:53
  TRACK 49 AUDIO
    TITLE "0:"
    INDEX 01 00:46:43
  TRACK 50 AUDIO
    TITLE "8:cjc094_0845"
    INDEX 01 00:46:58
  TRACK 51 AUDIO
    TITLE "0:"
    INDEX 01 00:49:29
  TRACK 52 AUDIO
    TITLE "7:cjc094_0846"
    INDEX 01 00:49:72
  TRACK 53 AUDIO
    TITLE "0:"
    INDEX 01 00:50:60
  TRACK 54 AUDIO
    TITLE "8:cjc094_0847"
    INDEX 01 00:50:74
  TRACK 55 AUDIO
    TITLE "0:"
    INDEX 01 00:57:60
  TRACK 56 AUDIO
    TITLE "7:cjc094_0848"
    INDEX 01 00:58:32
  TRACK 57 AUDIO
    TITLE "0:"
    INDEX 01 00:59:38
  TRACK 58 AUDIO
    TITLE "8:cjc094_0849"
    INDEX 01 00:59:53
  TRACK 59 AUDIO
    TITLE "0:"
    INDEX 01 01:02:01
  TRACK 60 AUDIO
    TITLE "7:cjc094_0850"
    INDEX 01 01:02:54
  TRACK 61 AUDIO
    TITLE "0:"
    INDEX 01 01:03:59
  TRACK 62 AUDIO
    TITLE "8:cjc094_0851"
    INDEX 01 01:04:01
  TRACK 63 AUDIO
    TITLE "0:"
    INDEX 01 01:05:34
  TRACK 64 AUDIO
    TITLE "7:cjc094_0852"
    INDEX 01 01:06:04
  TRACK 65 AUDIO
    TITLE "0:"
    INDEX 01 01:07:10
  TRACK 66 AUDIO
    TITLE "8:cjc094_0853"
    INDEX 01 01:07:25
  TRACK 67 AUDIO
    TITLE "0:"
    INDEX 01 01:08:29
